<svg width="73" height="107" viewBox="0 0 73 107" fill="none" xmlns="http://www.w3.org/2000/svg">
<path fill-rule="evenodd" clip-rule="evenodd" d="M18.7175 3.71752C22.4275 0.00753021 28.4426 0.00753021 32.1526 3.71752L69.6292 41.1942C73.3392 44.9041 73.3392 50.9192 69.6292 54.6292C65.9192 58.3392 59.9041 58.3392 56.1942 54.6292L18.7175 17.1525C15.0075 13.4426 15.0075 7.42748 18.7175 3.71752ZM8.7175 70.7175C12.4275 67.0075 18.4426 67.0075 22.1526 70.7175L41.2444 89.8094C44.9544 93.5194 44.9544 99.5344 41.2444 103.244C37.5345 106.954 31.5194 106.954 27.8094 103.244L8.71753 84.1525C5.00754 80.4426 5.00754 74.4275 8.7175 70.7175ZM17.1526 27.7175C13.4426 24.0075 7.42749 24.0075 3.7175 27.7175C0.00753784 31.4275 0.00753784 37.4426 3.7175 41.1525L53.215 90.65C56.925 94.36 62.94 94.36 66.65 90.65C70.36 86.94 70.36 80.9249 66.65 77.215L17.1526 27.7175Z" fill="#000000"/>
</svg>
